<?xml version="1.0" encoding="utf-8"?>
<!-- Generator: Adobe Illustrator 21.0.0, SVG Export Plug-In . SVG Version: 6.00 Build 0)  -->
<svg version="1.1" id="图层_1" xmlns="http://www.w3.org/2000/svg" xmlns:xlink="http://www.w3.org/1999/xlink" x="0px" y="0px"
	 viewBox="0 0 700 220" style="enable-background:new 0 0 700 220;" xml:space="preserve">
<style type="text/css">
	.st0{fill:#C4D600;}
	.st1{fill:#0091DA;}
	.st2{fill:#62B5E5;}
	.st3{fill:url(#SVGID_1_);}
	.st4{fill:url(#SVGID_2_);}
	.st5{fill:url(#SVGID_3_);}
	.st6{fill:#FFFFFF;}
	.st7{fill:url(#SVGID_4_);}
	.st8{fill:url(#SVGID_5_);}
	.st9{fill:url(#SVGID_6_);}
	.st10{fill:#171C8F;}
	.st11{fill:#CCCCCC;}
	.st12{fill:#DCDBDC;}
	.st13{fill:#1558A0;}
</style>
<g>
	<g>
		<g>
			<path class="st0" d="M102,65.4c-1.3-0.6-2.7-0.4-3.8,0.5l-23,18.6c-1.4,1.2-1.3,3.1-1.3,4.6c0,1.1,0,4.1,0,5.7l22.9-18.5v23.7H70
				v0h0v-8.6c0-1.3-0.8-2.5-2.1-3.1L35.4,73.3c-1.1-0.5-2.5-0.4-3.5,0.2c-1.1,0.6-1.7,1.7-1.7,2.9v26.9c0,1.9,1.6,3.5,3.6,3.5h28.9
				v0h0l0,19.7l7.3,0l0-19.7l30.4,0c2,0,3.6-1.5,3.6-3.5v-3.5V68.6C104,67.2,103.2,66,102,65.4z M62.7,99.9L62.7,99.9l-25.3,0v-18
				l25.3,11.6V99.9L62.7,99.9L62.7,99.9L62.7,99.9z"/>
			<path class="st1" d="M70,113.2h-7.3H33.8c-2,0-3.6,1.5-3.6,3.5l0,26.9c0,1.2,0.6,2.3,1.7,2.9c1.1,0.6,2.4,0.7,3.5,0.2L68,131.8
				c1.3-0.6,2.1-1.8,2.1-3.1v-8.6l0,0V113.2z M62.7,126.5l-25.3,11.6l0-18h25.3V126.5z"/>
			<path class="st2" d="M100.4,113.2H70v6.9h26.7v23.7l-22.9-18.5c0,1.7,0,4.6,0,5.7c0,1.5-0.1,3.4,1.3,4.6l23,18.6
				c1.1,0.9,2.6,1.1,3.8,0.5c1.3-0.6,2.1-1.9,2.1-3.3v-31.3v-1.7v-1.7C104,114.8,102.4,113.2,100.4,113.2z"/>
			<g>
				<linearGradient id="SVGID_1_" gradientUnits="userSpaceOnUse" x1="70.0136" y1="116.6723" x2="37.4659" y2="116.6723">
					<stop  offset="0.4431" style="stop-color:#62B5E5"/>
					<stop  offset="1" style="stop-color:#62B5E5;stop-opacity:0"/>
				</linearGradient>
				<rect x="37.5" y="113.2" class="st3" width="32.5" height="6.9"/>
			</g>
			<g>
				<linearGradient id="SVGID_2_" gradientUnits="userSpaceOnUse" x1="66.3773" y1="116.6266" x2="66.3773" y2="73.762">
					<stop  offset="0" style="stop-color:#0091DA"/>
					<stop  offset="0.75" style="stop-color:#0091DA;stop-opacity:0"/>
				</linearGradient>
				<rect x="62.7" y="106.8" class="st4" width="7.3" height="19.7"/>
				<linearGradient id="SVGID_3_" gradientUnits="userSpaceOnUse" x1="53.739" y1="116.6266" x2="53.739" y2="73.7618">
					<stop  offset="0" style="stop-color:#0091DA"/>
					<stop  offset="0.75" style="stop-color:#0091DA;stop-opacity:0"/>
				</linearGradient>
				<path class="st5" d="M70,93.6L70,93.6l0-2.3c0-1.3-0.8-2.5-2.1-3.1l-30.5-14v7.7l25.3,11.6l0,6.4l7.3,0L70,93.6z"/>
			</g>
		</g>
	</g>
	<g>
		<g>
			<path class="st6" d="M258.3,110.8c-2.7,2.1-4.3,3.2-9.3,3.9c-0.2,0-0.2-0.1-0.2-0.3c0.4-2.1,0.9-5.3,2-9.5
				c0.1-0.3-0.2-0.5-0.3-0.4c-9.4,1.9-18.9,2.6-26.9,2c-0.3,0-0.6,0.1-0.6,0.5c0,5,0,5.2-0.1,8.2c0,0.2-0.2,0.3-0.3,0.3
				c-2.1-0.2-5.4-0.7-7.6-1.5c-0.2-0.1-0.4,0-0.4,0.2c0,1.1,1.4,5.9,1.8,6.7c0.2,0.5,0.6,0.3,0.7,0.3c0.6-0.2,2.1-0.7,5.3-1.3
				c0.2,0,0.3,0,0.3,0.3c-0.1,1.6-1.1,6.5-2.9,10.5c-0.2,0.4,0.1,0.7,0.5,0.7c9.6-1,13.2-1,21-1.3c0.2,0,0.2,0,0.2,0.3
				c-0.4,1.8-0.8,4-1.2,5.8c0,0.1-0.1,0.4,0.1,0.4c1.9,0.2,3.9,0.6,6.8,1.2c0.3,0.1,0.3-0.3,0.3-0.6c-0.3-2.2-0.4-4.9-0.4-7.2
				c0-0.3,0.1-0.3,0.3-0.3c2.4,0,5.8,0.2,6.6,0.3c0.8,0.1,1.1,0.1,1.5-1c0.8-2.5,1.2-5.1,1.3-6.1c0-0.3-0.2-0.4-0.4-0.2
				c-2.1,1.6-5.1,2.7-9,2.8c-0.2,0-0.1-0.1-0.1-0.2c0.1-1.9,0.5-4.2,0.9-6.4c0-0.1,0-0.2,0.2-0.2c4.1-0.2,6.9,0.2,7.6,0.2
				c0.8,0,1,0.2,1.4-1.5c0.8-3.2,1.1-5.1,1.3-6.2C258.8,110.7,258.5,110.6,258.3,110.8z M228.1,111c0-0.2,0.1-0.3,0.3-0.3
				c0.4,0,4.9-0.4,5.6-0.4c0.2,0,0.2,0.1,0.2,0.2c0,0.3-0.4,3.4-0.4,4.5c0,0.2,0,0.3-0.2,0.3c-1.6,0.1-4,0.2-5.5,0.2
				c-0.2,0-0.3-0.2-0.3-0.3C227.9,114.2,228.1,111,228.1,111z M244,119c-0.4,1.8-1,5.2-1.5,6.6c0,0.1,0,0.1-0.2,0.1
				c-1.4,0.1-3.9,0.1-5.4,0.2c-0.1,0-0.2,0-0.1-0.2c0.4-0.8,1.9-3.3,2.5-4.1c0.1-0.2,0.1-0.4-0.2-0.5c-1.6-0.3-4.7-0.3-6.1-0.3
				c-0.3,0-0.5,0.2-0.4,0.5c0.1,0.6,0.8,3.6,1,4.5c0.1,0.2,0,0.3-0.1,0.3c-1.9,0.1-4.4,0.2-6.2,0.4c-0.2,0-0.3-0.2-0.3-0.4
				c0.6-2.4,0.7-5.4,0.8-6.5c0-0.1,0.1-0.4,0.3-0.4c4.1-0.3,9.1-0.5,15.6-0.6C244,118.6,244.1,118.8,244,119z M245.8,109.7
				c-0.1,0.6-0.8,4.2-1,5c0,0.1-0.1,0.3-0.3,0.3c-0.7,0-6.6,0.4-7.8,0.3c-0.1,0-0.1-0.1,0-0.2c0.3-0.4,1.7-1.8,2.6-2.6
				c0.1-0.1,0.2-0.3,0.1-0.4c-0.2-0.3-1.3-1.3-1.7-1.7c-0.1-0.1,0-0.2,0.1-0.2c1.7-0.1,5.4-0.5,7.6-0.7
				C245.6,109.4,245.9,109.4,245.8,109.7z"/>
			<g>
				<path class="st6" d="M213.4,89.8c-1.5,0.8-7.8,3.9-9.4,4.7c-0.5,0.2-0.3,0.6-0.2,0.7c1.6,2.2,3.8,4.1,5.2,4.9
					c0.2,0.1,0.4,0.1,0.7-0.3c2.2-2.8,3.5-6.9,4.1-9.8C213.9,89.8,213.6,89.7,213.4,89.8z"/>
				<path class="st6" d="M204,113.6c0.1,0.2,0.4,0.4,0.7,0.1c4.6-3.5,7.5-7.7,8.8-10.7c0.1-0.2-0.1-0.4-0.4-0.4
					c-2.2,0.7-4.8,1.6-10.4,1.9c-0.4,0-0.5,0.2-0.5,0.5C202.5,107.1,203.2,111.2,204,113.6z"/>
				<path class="st6" d="M211.9,112.3c-2.8,5.4-5.8,8.5-10.9,9.7c-0.2,0.1-0.5,0.2-0.4,0.5c0.6,2.8,2.8,9.1,3.6,10.7
					c0.2,0.4,0.6,0.3,0.8,0.1c5.4-6.8,8.5-14.7,7.4-20.9C212.3,112.2,212,112.1,211.9,112.3z"/>
				<path class="st6" d="M221.9,95.3c4.8-1.3,8.5-4.9,9.7-7.1c0.5-0.9,0.8-1.4-0.1-2.1c-1.4-1.1-5.3-3.2-7.3-4c-1-0.4-1,0.1-1,0.6
					c-0.5,7.1-0.8,11-1.5,12.2C221.6,95.1,221.7,95.4,221.9,95.3z"/>
				<path class="st6" d="M217.6,103.6c5.5-0.9,12.5-1.3,20.3-1.5c4.8-0.2,11.9-0.7,14.3-0.6c0.9,0,1,0.2,1.6-0.4
					c0.8-0.9,2.6-3.6,3.6-8c0-0.2-0.3-0.3-0.5-0.2c-4,3-17,4.2-20.9,4.5c-8.3,0.6-17.6,0.8-21.4-1.9c-0.2-0.1-0.6-0.1-0.5,0.3
					c0.3,2.5,2,6.4,3.3,7.8C217.4,103.6,217.4,103.6,217.6,103.6z"/>
			</g>
		</g>
		<g>
			<g>
				<g>
					<path class="st6" d="M159.4,85.3c0.7-0.5,1.3-1.3,0.6-2.2c-0.8-1.1-2-3-2.5-4.3c-0.1-0.3-0.5-0.5-0.8-0.2
						c-4.7,4.4-9.5,6.6-15.1,5.9c-0.1,0-0.3,0.1-0.2,0.3C146.1,91.3,157.2,86.8,159.4,85.3z"/>
					<path class="st6" d="M161.9,108.7C161.9,108.7,161.9,108.7,161.9,108.7c-0.2,0-0.4,0-0.6,0c-0.9-0.1-2.6-0.1-3.6-0.5
						c-0.2-0.1-0.3-0.3-0.3-0.4c0.3-1.6,0.7-3.3,0.7-4.6c0,0,0,0,0,0c-1.5,0.1-5.3,0.3-6.9,0.5l0,0c-0.1,0-0.2-0.1-0.3-0.2
						c-0.1-0.2-0.8-2.6-0.9-3.2c0-0.1,0-0.2,0.1-0.3c0.1-0.1,0.2-0.1,0.3-0.1c0,0,0,0,0.1,0c2.2,0.3,5.9,0.5,7.9,0.5c0,0,0,0,0,0
						c0.1-1.3-0.1-4.7-0.1-5.2c0-0.1,0-0.2,0.1-0.3c0,0,0.1-0.1,0.2-0.1c0.7,0,3.1-0.1,3.3-0.1c0.1,0,0.3,0.1,0.3,0.1
						c0.1,0.1,0.1,0.2,0.1,0.4c-0.2,1-0.2,4.5-0.2,5l0,0c1.6-0.1,4.9-0.3,7.2-0.7c0,0,0.1,0,0.1,0c0.1,0,0.2,0,0.3,0c0,0,0,0,0,0
						c0.1,0,0.2,0,0.2,0.1c0.1,0.1,0.1,0.2,0.1,0.3c0,0.2-0.2,1.9-0.5,3.1c0,0.2-0.2,0.3-0.4,0.3c-0.7,0-4.9-0.2-6.6-0.2
						c-0.3,0-0.2,0-0.4,0c0,0,0,0,0,0c0.1,1.8,0.3,4.3,0.3,5.2c0,0.1,0,0.2-0.1,0.3C162.2,108.6,162.1,108.7,161.9,108.7z"/>
					<path class="st6" d="M168.1,105.3c-0.9-0.2-3.6-0.5-4.2-0.6c-0.1,0-0.2,0.1-0.2,0.2c0.1,1.1,0.9,3.2,2.3,3.3
						c1.1,0.1,1.9-1,2.2-2.7C168.3,105.4,168.2,105.3,168.1,105.3z"/>
					<path class="st6" d="M151.5,98.4c1.9,0.2,3.9,0.5,4.8,0.7c0.1,0,0.2,0,0.2-0.1c0.2-1.2-0.3-2.2-0.8-2.9
						c-0.2-0.2-0.4-0.5-0.8-0.6c-0.3,0-0.6,0.1-0.9,0.3c-0.2,0.1-1.8,1.4-2.7,2.3C151.4,98.2,151.4,98.4,151.5,98.4z"/>
					<path class="st6" d="M151.9,105.1c-0.2,0.1-0.1,0.2-0.1,0.3c0.2,0.8,0.5,1.9,0.7,2.5c0,0.1,0.1,0.2,0.2,0.3
						c0.1,0.1,0.3,0.1,0.4,0.1c0.7-0.1,1.3-0.5,1.8-1c0.5-0.5,1.1-1.8,1.4-2.4c0.1-0.1-0.1-0.2-0.1-0.2
						C155.5,104.5,153.2,104.7,151.9,105.1z"/>
				</g>
				<path class="st6" d="M176.9,113.3c-0.5-3.3-0.5-16.8,0.1-24c0.1-0.7-0.6-0.6-1.1-0.5c-1.8,0.2-20.1,1.4-32,1.4
					c-0.2,0-0.2,0.2-0.2,0.2c0.1,0.4,0.2,1.7,0.3,2.5c0.4,6.1,0.2,10.7-0.4,19.3c0,0.3-0.1,0.5-0.1,0.6c-0.4,0.9,0.3,1.9,1.2,1.7
					c6.4-0.8,22-1,32-1C176.8,113.5,176.9,113.4,176.9,113.3z M171.6,108.2c-0.1,0.9-1.1,1.4-2.1,1.4c-0.7,0-18.9,0.1-19.9,0.1
					c-0.3,0-0.5-0.2-0.5-0.4c-0.1-5.9-0.3-9.7,0.3-15.2c0-0.1,0.1-0.2,0.2-0.2c6.3-0.1,14.7-0.3,20.5-0.4c0.6,0,1.8-0.2,1.8,0.7
					C171.6,101.8,171.6,107.7,171.6,108.2z"/>
				<path class="st6" d="M168.6,97.6c0,0.1,0,0.2-0.2,0.2c-0.7,0-2.8,0.4-4.2,1c-0.1,0-0.2,0-0.2-0.1c0-2,1.7-3.4,2.4-3.4
					C167.2,95.2,168.5,96.3,168.6,97.6z"/>
			</g>
			<path class="st6" d="M145.4,135.3c-0.1-0.1-0.1-0.2-0.1-0.3c0-0.1,0.2-0.2,0.3-0.2c0,0,0.1,0,0.1,0c7.2,1.9,17.7,0.2,21.2-3
				c0.7-0.7,1-1.4,1-2.3c0-0.3,0-0.5-0.4-0.5c-8.7,0.5-15.9,0.5-15.9,0.5c0,0,0,0,0,0c-0.2,0-0.2-0.1-0.3-0.1c-0.1-0.1,0-0.3,0-0.3
				c1.7-3.2,2.6-5.7,3.3-7.6c0,0,0-0.1,0-0.1c0,0,0,0,0,0c0,0,0,0-0.1,0c-7.6,0.2-11.9,0.1-19.3,0.6c-0.2,0-0.3,0-0.4,0
				c-0.4,0-0.6-0.1-0.8-0.5c-0.9-1.6-2.4-5.3-2.7-6.4c0-0.1,0-0.2,0.1-0.3c0.1-0.1,0.1-0.1,0.2-0.1c0,0,0.1,0,0.1,0
				c7.9,2.5,13.1,2.8,36.4,2.2c17.3-0.5,20.2-5.2,21-5.6c0.4-0.2,0.4-0.1,0.5,0.2c0.1,0.3,0.4,1.6,0.1,3.3c-0.4,2.4-1,5-1.6,5.9
				c0,0,0,0,0,0c-0.1,0.2-0.3,0.5-1.1,0.5l0,0c-0.8,0-1.8,0-2.9,0c-3,0-10.2-0.1-14.5-0.1c-2.5,0-6.1,0-8.4,0.1
				c-0.1,0-0.1,0-0.2,0.1c-0.6,1.1-1.3,2.4-2,3.4c0,0,0,0,0,0c1,0.1,2.9,0.1,3.9,0.1c2.5,0,7-0.5,10.8-0.9c0,0,0.1,0,0.1,0
				c0.3,0,0.5,0.3,0.6,0.5c0.8,4.2,1.3,8.1-2.1,11.5c-1.3,1.3-4.9,2.5-7,2.9C153.8,140.5,148.1,137.9,145.4,135.3z"/>
		</g>
		<g>
			<path class="st6" d="M399.6,103.1c-1.7,1.2-6,3.8-11,3.7c-4.3-0.1-11.7-2.8-20.1-6.7c-0.1,0-0.2-0.2,0-0.4
				c5.5-5.7,7.3-10.6,7.8-14.2c0-0.2-0.2-0.4-0.5-0.2c-4.5,1.9-9.4,3.3-13.2,4.1c-0.2,0-0.4-0.1-0.3-0.3c0.5-1.9,1.1-5.6,1.1-6.3
				c0-0.3-0.2-0.3-0.3-0.3c-0.7,0.1-2.1,0.2-4.9,0.4c-0.6,0-1.3,0-1.9,0c-0.1,0-0.3,0-0.4,0c-0.1,0-0.3,0-0.4,0
				c-0.1,0.1-0.1,0.2-0.1,0.3c0.6,1.8,0.8,3.8,0.6,5.7c-0.2,2-0.9,3.8-1.6,5.7c-0.1,0.2,0,0.4,0.3,0.4c0.3,0,0.7-0.1,1-0.2
				c3.1-0.6,9.9-2.2,12.2-3c0.1,0,0.3,0.1,0.2,0.2c-1.1,2-3.6,4.5-5.7,6.2c0,0-0.1,0-0.2,0c-0.6-0.2-3.9-1.2-7.7-1
				c-2.8,0.1-5.9,1.1-6.9,1.8c-0.1,0.1-0.1,0.3,0.1,0.3c3.3-0.2,8.1,0.6,11,2.4c0.1,0.1,0.1,0.2,0,0.3c-1,0.7-5.7,4-13.3,5.7
				c-2.8,0.6-6.8,0.4-10.3-1.5c-0.4-0.2-0.8,0.1-0.7,0.6c0.2,1.3,3.2,9.3,5.6,10.2c1.7,0.6,5.8-1.7,7.3-2.5
				c5.9-3.1,15.6-10,16.5-10.6c0.1,0,0.1,0,0.2,0c1.9,1,2.9,1.8,4.3,2.7c1.8,1.2,3.7,2.3,5.5,3.5c3.6,2.3,7.3,4.6,10.9,6.9
				c1,0.7,2.2,1.3,3.4,1.3c1.2,0,2.2-0.7,3.1-1.5c3.9-3.1,7.3-8,8.6-13C400.2,103.1,399.9,102.9,399.6,103.1z"/>
			<path class="st6" d="M373.8,111.6c0-0.2-0.2-0.4-0.4-0.3c-1.3,0.7-5.1,2-8.5,2.5c-0.1,0-0.2-0.1-0.2-0.2c0.7-2.9,0.8-4.3,0.9-4.8
				c0-0.1,0-0.2-0.1-0.2c-0.5-0.2-2.7-0.9-3.3-1.2c-0.1,0-0.2,0-0.2,0.1c-0.1,1.9-0.4,5.2-0.7,6.5c0,0.1-0.1,0.1-0.1,0.1
				c-0.5,0-2.5,0.1-4.1,0.1c-0.4,0-0.7,0-1.1,0c-0.3,0-0.6,0-1-0.1c-0.3,0-0.5,0-0.8-0.1c-0.2,0-0.4,0-0.6-0.1c-0.1,0-0.1,0-0.2,0
				c-0.1,0-0.2,0-0.3,0c-0.1,0-0.1,0.1-0.1,0.1c0,0.1,0,0.2,0,0.2c0,0.1,0,0.2,0,0.2c0,0.2,0,0.3,0.1,0.5c0,0.3,0.1,0.6,0.2,0.9
				c0.1,0.3,0.1,0.6,0.2,0.9c0.1,0.3,0.2,0.6,0.2,0.9c0.1,0.3,0.2,0.5,0.3,0.8c0.1,0.2,0.2,0.4,0.2,0.7c0.1,0.2,0.1,0.3,0.2,0.5
				c0,0,0,0.1,0,0.1c0.1,0.1,0.2,0.2,0.3,0.1l5.3-1c0.1,0,0.2,0.1,0.2,0.2c-1.5,4.1-4.1,8.2-6.4,10.4c-2.3,2.1-6.9,2.9-10.1,2.6
				c-0.3,0-0.4,0.3-0.2,0.5c0.8,0.9,5,3.9,10.2,3.8c1.5,0,2.6-0.7,3.3-1.6c1.6-2.1,3.3-5.9,5.1-10.9c0.5-1.3,1.7-5.1,1.8-5.7
				c0-0.1,0.1-0.1,0.1-0.1c0.6-0.1,3.3-0.7,4.4-0.9c0.1,0,0.2,0,0.2,0.1c0.4,4.8,0.2,14-0.5,19.5c0,0.1,0.1,0.2,0.1,0.2
				c0.7,0.2,5.4,0.8,8.1,0.9c0.1,0,0.2-0.1,0.2-0.2c-1-4.2-1.7-8.4-2-12.1C373.9,119.8,373.7,114,373.8,111.6z"/>
		</g>
		<g>
			<path class="st6" d="M290.8,97.5c0-0.2-0.3-0.3-0.4-0.2c-0.9,0.6-3.7,2.1-8.1,1.5c-1-0.1-3.6-1-5-1.7c-0.3-0.2-0.7,0-0.8,0.5
				c-0.1,1.5,0.5,5.4,1.4,6.6c0.5,0.6,1.1,0.9,2,1c2.6,0.2,5.7-1.1,7.1-2c0.2-0.1,0.4,0,0.4,0.2c0,1.1-0.5,3.4-1,4.9
				c-1.3,3.7-3.1,7.8-5.8,10.6c-0.5,0.5-1.9,2-4.1,2.8c-2.6,1-5.7,0.4-7,0c-0.2-0.1-0.4,0.2-0.4,0.4c0.5,2.3,3.2,5.8,7.1,6.2
				c1.9,0.2,4,0,5.8-0.9c5.2-2.6,8-12.4,8.6-15.3C291.6,107.3,291.5,101.6,290.8,97.5z"/>
			<path class="st6" d="M330.9,118.2c-8.2,2-13.8,0.5-17.9-4c-2.8-3.1-5.4-8.3-6.8-12.3c-0.1-0.2,0.1-0.4,0.3-0.4
				c3.9-0.1,9.7-0.6,14.1-2.1c0.3-0.1,0.6-0.4,0.7-0.7c0.2-0.7-0.2-2.6-0.5-3.3c-0.5-1.4-1.1-2.4-1.8-3.4c-0.3-0.4-0.6-0.1-0.6-0.1
				c-1.8,2.2-5.2,3.4-7.8,4.2c-3.5,1.1-7.2,1.5-9.3,1.3c-0.1,0-0.2-0.1-0.2-0.3c0.1-3.9,0.1-8.1,0.1-12c0-0.3-0.2-0.3-0.4-0.3
				c-2.4,0.9-5.5,1.6-8,2.1c-0.2,0-0.3,0.2-0.2,0.3c0,0.2,0.1,0.5,0.2,0.6c1.4,3.3,2.2,6.9,2.9,10.4c0.7,3.6,1.2,7.3,1.5,11
				c0.2,3.4,0.3,6.8,0.1,10.2c-0.1,1.4-0.2,2.9-0.4,4.3c-0.2,1.3-0.5,2.8-1.2,3.9c-1.7,2.4-4.6,2.1-7.1,1.9c-0.1,0-0.2,0-0.2,0.1
				c-0.1,0.1-0.1,0.2,0,0.3c0.9,1.6,2.1,3,3.7,3.7c2.5,1.1,5.8,0.7,8-0.8c2.9-1.9,3.3-5.6,3.2-8.8c-0.1-3.6-0.5-7.3-0.8-10.9
				c-0.1-1.4-0.3-2.8-0.5-4.2c-0.3-2.5-0.6-5.5-0.7-7.3c0-0.2,0.2-0.3,0.3-0.1c2.4,7.5,5.2,14.4,9.5,20c1.6,2,4.7,5,6.5,5.6
				c1.2,0.4,2.6,0.4,4-0.2c3.3-1.2,8.8-6.2,10-8.4C331.7,118.5,331.4,118.1,330.9,118.2z"/>
		</g>
	</g>
</g>
<g>
	<path class="st12" d="M587.4,70.7c-0.4,0-0.9,0-1.3,0.1c3,0.2,5.9,1.1,8.1,2.6c3.6,2.2,5.9,5.8,5.9,9.7c0,6.8-6.9,12.4-15.4,12.4
		c-3.1,0-6-0.7-8.4-2c-2.1-1.1-3.8-2.6-5-4.3c1.4,2.5,3.4,4.7,6,6.5c2.8,1.7,6.3,2.6,10.1,2.6c9.5,0,17.2-6.1,17.2-13.7
		S596.9,70.7,587.4,70.7z"/>
	<path class="st6" d="M592.4,63.1c-12.8,0-23.1,8.3-23.1,18.5c0,0.3,0,0.5,0,0.8c0.1,2.1,0.6,4.2,1.6,6c-0.5-1.2-0.7-2.6-0.7-4
		c0-7.2,7-13.2,15.8-13.7c0.4-0.1,0.9-0.1,1.3-0.1c9.5,0,17.2,6.1,17.2,13.7c0,7.6-7.7,13.7-17.2,13.7c-3.8,0-7.3-1-10.1-2.6
		c4.1,2.8,9.4,4.5,15.1,4.5c12.8,0,23.1-8.3,23.1-18.5C615.5,71.4,605.2,63.1,592.4,63.1z"/>
	<polygon class="st6" points="465.1,87.3 465.1,99.3 458,99.3 458,64 465.1,64 465.1,78.3 478.5,64 488,64 473.7,78.4 488.9,99.3 
		479.4,99.3 468.5,83.8 	"/>
	<path class="st6" d="M524.4,69.4c-1.7-2.4-4.1-4.2-7.2-5.3c-2-0.7-4.2-1.1-6.5-1.1c-2.3,0-4.4,0.4-6.5,1.1c-3,1.1-5.3,2.9-7.1,5.3
		c-2.2,3.1-3.3,7.2-3.3,12.2c0,5,1.1,9.1,3.4,12.2c1.7,2.4,4.1,4.2,7.1,5.3c2.1,0.7,4.2,1.1,6.5,1.1c2.3,0,4.4-0.4,6.5-1.1
		c3-1.1,5.4-2.8,7.1-5.3c2.2-3.1,3.4-7.2,3.4-12.2C527.8,76.6,526.6,72.5,524.4,69.4z M517.1,91.5c-1.7,1.6-3.8,2.5-6.3,2.5
		c-2.5,0-4.6-0.9-6.3-2.5c-2.2-2.1-3.3-5.5-3.3-9.9c0-4.5,1.1-7.8,3.3-9.9c1.7-1.7,3.8-2.5,6.3-2.5c2.5,0,4.7,0.9,6.3,2.5
		c2.2,2.1,3.3,5.5,3.3,9.9C520.4,86,519.3,89.4,517.1,91.5z"/>
	<polygon class="st6" points="643.8,64 650.1,64 650.1,99.3 643.3,99.3 628.9,74.1 628.8,99.3 622.8,99.3 622.8,64 629.7,64 
		643.7,88.6 	"/>
	<path class="st6" d="M565.1,99.3l-10.5-14.4c12.1-1.4,10.7-20.9-0.4-20.9h-17.5v35.3h6.9V85.1v-5.6l2.6,3.7l11.3,16H565.1z
		 M543.7,79.5v-9.5h9.2c5.7,0,5.5,9.5-0.5,9.5H543.7L543.7,79.5L543.7,79.5L543.7,79.5z"/>
	<g>
		<path class="st6" d="M470.1,145.7c-0.4-0.9-1-2.1-1.7-3.2v14.4H463v-12c-1.1,2.4-2.2,4.5-3.4,6.1c-0.5-1.7-1.7-4-2.6-5.5
			c2-2.4,3.9-6,5.2-9.5h-4.8v-5.2h5.5v-3.6c-1.3,0.2-2.6,0.4-3.8,0.5c-0.2-1.2-0.9-3.2-1.5-4.3c4.5-0.6,9.3-1.9,12.6-3.2l3,4.6
			c-1.6,0.5-3.2,1-4.9,1.4v4.7h4.8v5.2h-4.8v0.1c1.1,0.9,4.1,4.2,4.9,5L470.1,145.7z M490.2,147.1v9.6h-5.6v-8.6l-11.2,2.1l-0.9-5.4
			l12.1-2.2v-22.8h5.6v21.8l3.5-0.6l0.9,5.3L490.2,147.1z M476.9,132.2c2.1,1.7,4.9,4.1,6.1,5.8l-3.9,3.6c-1.1-1.8-3.7-4.3-5.8-6.1
			L476.9,132.2z M480.2,131.3c-1-1.7-3.5-4.3-5.6-6.1l3.7-3.2c2,1.7,4.7,4.1,5.8,5.8L480.2,131.3z"/>
		<path class="st6" d="M534.4,143.6c3,3,7.7,5.6,12.5,7.1c-1.3,1.2-3,3.4-3.9,4.9c-4.5-1.8-8.7-4.9-12-8.6v9.7h-5.6v-9.3
			c-3.3,3.5-7.4,6.5-12,8.2c-0.8-1.4-2.5-3.6-3.7-4.7c4.9-1.5,9.6-4.2,12.7-7.3h-11.2v-5h14.3V135h5.6v3.6h14.5v5L534.4,143.6
			L534.4,143.6z M519.1,126.8h-8v-5h8v-1.9h5.6v1.9h7.2v-1.9h5.6v1.9h8.2v4.9h-8.2v2h-5.6v-2h-7.2v2h-5.6V126.8z M539.4,137.5v-3.2
			h-22.5v3.2h-5.3v-8H545v8H539.4z"/>
		<path class="st6" d="M597.8,137.8c-1.2,4.9-3.1,8.7-5.8,11.5c2.2,1.1,4.8,1.9,7.5,2.5c-1.1,1.2-2.6,3.5-3.2,5
			c-3.3-0.9-6.2-2.1-8.7-3.8c-2.5,1.6-5.3,2.7-8.5,3.6c-0.4-1.2-1.3-3-2.1-4.3c-0.2,1.5-0.5,2.5-1.5,3.2c-1.2,0.9-2.8,1.1-5,1.1
			c-0.1-1.4-0.7-3.9-1.3-5.3c0.9,0.1,1.9,0.1,2.4,0.1c0.4,0,0.5-0.2,0.5-0.6v-6.6h-3.2c-0.3,4.5-0.9,9.3-2.1,12.7
			c-1-0.8-3.3-2.1-4.5-2.5c1.8-5.3,1.9-13.2,1.9-18.8v-14.3h13v10.9c3.4-1.9,3.7-4.3,3.7-6.6v-4.2h14.1v8.2c0,1.1,0.1,1.7,0.5,1.7
			h1.1c0.5,0,1.4-0.1,1.9-0.3c0.1,1.4,0.2,3.3,0.4,4.6c-0.6,0.3-1.5,0.4-2.3,0.4h-1.7c-4.2,0-5-1.9-5-6.4v-2.9h-4.1
			c-0.2,3.7-1.4,7.8-6,10.2c-0.5-0.9-1.7-2.4-2.7-3.3v17.5v0.7c2.4-0.5,4.5-1.2,6.4-2.2c-1.7-1.9-3.2-4.1-4.4-6.5l2.7-1h-3.7v-5.2
			h15.6l0.9-0.2L597.8,137.8z M572,138.9v-3.8h-3v0.4c0,1.1,0,2.2-0.1,3.4H572L572,138.9z M569.1,129.9h3v-3.6h-3V129.9z
			 M583.9,141.9c1,1.7,2.2,3.2,3.7,4.6c1.3-1.3,2.5-2.8,3.4-4.6H583.9z"/>
		<path class="st6" d="M627.8,121.7c-1,2.6-2.2,5.2-3.5,7.8v27.2h-5.6v-18.6c-0.5,0.7-1.1,1.3-1.7,1.9c-0.5-1.4-2-4.5-2.9-5.9
			c3.3-3.4,6.6-8.7,8.4-14.1L627.8,121.7z M644.5,120.7c1.5,6.8,3.6,10.5,7.9,13.5c-1.4,1.2-3,3.1-3.7,4.8c-0.4-0.3-0.7-0.5-1-0.9
			c-0.4,10.5-0.8,14.7-1.9,16.2c-1,1.3-2,1.7-3.3,2c-1.2,0.2-2.9,0.2-4.8,0.2c-0.1-1.6-0.7-3.7-1.6-5.2c1.4,0.2,2.7,0.2,3.5,0.2
			c0.6,0,0.9-0.1,1.3-0.6c0.6-0.8,1-3.8,1.2-11.3H638c-1,8.4-3.6,14-9.6,17.3c-0.6-1.1-2.6-3.3-3.7-4.2c5.1-2.4,7.3-6.7,7.8-13.2
			h-2.7v-2.2c-0.7,0.8-1.4,1.5-2.2,2.1c-0.6-1.3-2.2-4-3.3-5.2c3.7-2.9,6.3-7.8,7.6-13.3l5.5,1.2c-1.2,4.5-3,8.7-5.3,12.2h12.2
			c-2.4-3.3-3.8-7.3-4.9-12.8L644.5,120.7z"/>
	</g>
	<rect id="XMLID_9824_" x="458.1" y="110" class="st6" width="193.7" height="2.4"/>
	<g>
		<path class="st6" d="M664.1,64c-3.7,0-6.8,3-6.8,6.8c0,3.7,3,6.8,6.8,6.8s6.8-3,6.8-6.8C670.9,67,667.9,64,664.1,64z M664.1,75.9
			c-2.9,0-5.2-2.3-5.2-5.2s2.3-5.2,5.2-5.2s5.2,2.3,5.2,5.2C669.3,73.6,667,75.9,664.1,75.9z"/>
		<path class="st6" d="M667.1,69.2c0-1.8-1.3-2.4-2.9-2.4h-2.7v7.8h1.6v-2.9h1.1l1.6,2.9h1.8l-1.8-3.2
			C666.5,71.1,667.1,70.4,667.1,69.2z M664,70.5h-1v-2.4h1c1,0,1.6,0.3,1.6,1.1C665.5,70.1,665,70.5,664,70.5z"/>
	</g>
</g>
<rect x="427.6" y="78" class="st6" width="2" height="64"/>
</svg>
